<?xml version="1.0" standalone="no"?><!DOCTYPE svg PUBLIC "-//W3C//DTD SVG 1.1//EN" "http://www.w3.org/Graphics/SVG/1.1/DTD/svg11.dtd"><svg t="1564833967742" class="icon" viewBox="0 0 1024 1024" version="1.1" xmlns="http://www.w3.org/2000/svg" p-id="12750" xmlns:xlink="http://www.w3.org/1999/xlink" width="128" height="128"><defs><style type="text/css"></style></defs><path d="M512 0C229.225412 0 0 229.225412 0 512s229.225412 512 512 512 512-229.225412 512-512S794.774588 0 512 0zM740.472471 680.357647C748.182588 688.067765 752.941176 698.699294 752.941176 710.415059 752.941176 733.936941 733.876706 752.941176 710.415059 752.941176c-11.776 0-22.347294-4.758588-30.057412-12.468706L512 572.114824l-168.357647 168.357647C335.932235 748.182588 325.300706 752.941176 313.584941 752.941176 290.063059 752.941176 271.058824 733.936941 271.058824 710.415059c0-11.715765 4.758588-22.347294 12.438588-30.057412l168.357647-168.357647-168.357647-168.327529C275.817412 335.962353 271.058824 325.330824 271.058824 313.584941 271.058824 290.093176 290.063059 271.058824 313.584941 271.058824c11.745882 0 22.347294 4.758588 30.057412 12.438588l168.357647 168.357647 168.357647-168.357647C688.067765 275.847529 698.639059 271.058824 710.415059 271.058824 733.876706 271.058824 752.941176 290.093176 752.941176 313.584941c0 11.776-4.758588 22.377412-12.468706 30.087529L572.114824 512 740.472471 680.357647z" p-id="12751" fill="#2c2c2c"></path></svg>