<?xml version="1.0" standalone="no"?><!DOCTYPE svg PUBLIC "-//W3C//DTD SVG 1.1//EN" "http://www.w3.org/Graphics/SVG/1.1/DTD/svg11.dtd"><svg t="1563674472923" class="icon" viewBox="0 0 1024 1024" version="1.1" xmlns="http://www.w3.org/2000/svg" p-id="2023" xmlns:xlink="http://www.w3.org/1999/xlink" width="200" height="200"><defs><style type="text/css"></style></defs><path d="M495.5 679.4c4.7 4.7 10.9 7.2 17.5 7.2s12.8-2.6 17.5-7.2L733.9 476c4.7-4.7 7.2-10.9 7.2-17.5s-2.6-12.8-7.2-17.5c-9.3-9.3-25.6-9.3-34.9 0L537.7 602.3V218.7c0-13.6-11.1-24.7-24.7-24.7s-24.7 11.1-24.7 24.7v383.6L327 441c-9.4-9.3-25.6-9.3-34.9 0-4.7 4.7-7.2 10.9-7.2 17.5s2.6 12.8 7.2 17.5l203.4 203.4z" fill="#ffffff" p-id="2024"></path><path d="M795.2 633c-13.6 0-24.7 11.1-24.7 24.7v103.8c0 8.5-6.7 15.4-15 15.4h-485c-8.3 0-15-6.9-15-15.4V657.7c0-13.6-11.1-24.7-24.7-24.7s-24.7 11.1-24.7 24.7v116.2c0 28.9 23.5 52.4 52.4 52.4h509.1c28.9 0 52.4-23.5 52.4-52.4V657.7c-0.1-13.6-11.2-24.7-24.8-24.7z" fill="#ffffff" p-id="2025"></path></svg>