<?xml version="1.0" standalone="no"?><!DOCTYPE svg PUBLIC "-//W3C//DTD SVG 1.1//EN" "http://www.w3.org/Graphics/SVG/1.1/DTD/svg11.dtd"><svg t="1564833744031" class="icon" viewBox="0 0 1024 1024" version="1.1" xmlns="http://www.w3.org/2000/svg" p-id="11724" data-spm-anchor-id="a313x.7781069.0.i20" width="128" height="128" xmlns:xlink="http://www.w3.org/1999/xlink"><defs><style type="text/css"></style></defs><path d="M830.976 349.696l-389.12 389.12c-8.704 8.704-19.968 13.312-32.256 13.312s-23.552-4.608-32.256-13.312l-184.32-184.32c-17.92-17.92-17.92-46.592 0-64.512s46.592-17.92 64.512 0L409.6 642.048l356.864-356.864c17.92-17.92 46.592-17.92 64.512 0s17.92 46.592 0 64.512M512 0C229.376 0 0 229.376 0 512s229.376 512 512 512 512-229.376 512-512S794.624 0 512 0" fill="#b4f080" p-id="11725"></path></svg>