<?xml version="1.0" standalone="no"?><!DOCTYPE svg PUBLIC "-//W3C//DTD SVG 1.1//EN" "http://www.w3.org/Graphics/SVG/1.1/DTD/svg11.dtd"><svg t="1564832469689" class="icon" viewBox="0 0 1024 1024" version="1.1" xmlns="http://www.w3.org/2000/svg" p-id="4934" xmlns:xlink="http://www.w3.org/1999/xlink" width="200" height="200"><defs><style type="text/css"></style></defs><path d="M631.808 880.64c-5.12 9.216-56.32 92.16-114.688 92.16s-109.568-82.944-114.688-92.16c-4.096-6.144-4.096-14.336 0-20.48s10.24-10.24 17.408-10.24h194.56c7.168 0 14.336 4.096 17.408 10.24s4.096 14.336 0 20.48zM808.96 235.52c0 67.584-55.296 122.88-122.88 122.88s-122.88-55.296-122.88-122.88 55.296-122.88 122.88-122.88 122.88 55.296 122.88 122.88z m53.248 462.848l-37.888-60.416c-9.216-15.36-19.456-45.056-20.48-63.488l-16.384-209.92C759.808 386.048 723.968 399.36 686.08 399.36c-90.112 0-163.84-73.728-163.84-163.84 0-52.224 25.6-99.328 63.488-129.024-1.024 0-2.048-1.024-2.048-1.024C573.44 72.704 545.792 51.2 512 51.2s-61.44 21.504-71.68 54.272C327.68 143.36 245.76 244.736 236.544 362.496l-16.384 211.968c-1.024 18.432-11.264 48.128-20.48 63.488l-37.888 60.416c-20.48 32.768-23.552 65.536-9.216 91.136S196.608 829.44 235.52 829.44h553.984c38.912 0 68.608-14.336 82.944-39.936s10.24-58.368-10.24-91.136z" p-id="4935" fill="#ffffff"></path></svg>