<?xml version="1.0" standalone="no"?><!DOCTYPE svg PUBLIC "-//W3C//DTD SVG 1.1//EN" "http://www.w3.org/Graphics/SVG/1.1/DTD/svg11.dtd"><svg t="1564816787185" class="icon" viewBox="0 0 1024 1024" version="1.1" xmlns="http://www.w3.org/2000/svg" p-id="1293" width="200" height="200" xmlns:xlink="http://www.w3.org/1999/xlink"><defs><style type="text/css"></style></defs><path d="M631.808 880.64c-5.12 9.216-55.296 92.16-114.688 92.16s-109.568-82.944-114.688-92.16c-6.144-10.24-2.048-22.528 7.168-27.648 10.24-6.144 22.528-2.048 27.648 7.168 14.336 23.552 51.2 71.68 79.872 71.68s65.536-48.128 79.872-71.68c6.144-10.24 18.432-13.312 27.648-7.168 10.24 5.12 13.312 18.432 7.168 27.648zM966.656 86.016l-880.64 880.64c-4.096 4.096-9.216 6.144-14.336 6.144s-10.24-2.048-14.336-6.144c-8.192-8.192-8.192-20.48 0-28.672l121.856-121.856c-15.36-9.216-26.624-22.528-31.744-38.912-7.168-23.552-2.048-51.2 15.36-78.848l37.888-60.416c9.216-14.336 18.432-45.056 20.48-63.488l16.384-211.968c9.216-115.712 92.16-220.16 203.776-257.024 10.24-31.744 40.96-54.272 76.8-54.272 34.816 0 65.536 22.528 76.8 53.248 68.608 23.552 128 71.68 163.84 133.12L937.984 57.344c8.192-8.192 20.48-8.192 28.672 0 8.192 8.192 8.192 20.48 0 28.672zM727.04 267.264c-31.744-60.416-89.088-106.496-156.672-126.976-7.168-2.048-13.312-9.216-14.336-16.384-2.048-17.408-19.456-31.744-38.912-31.744s-36.864 14.336-38.912 32.768c-1.024 8.192-7.168 14.336-14.336 16.384-101.376 28.672-177.152 120.832-186.368 224.256l-16.384 211.968c-2.048 25.6-14.336 61.44-26.624 81.92l-37.888 60.416c-11.264 17.408-14.336 32.768-11.264 45.056 3.072 8.192 9.216 14.336 19.456 18.432 1.024 1.024 3.072 1.024 4.096 2.048L727.04 267.264z m107.52 371.712c-9.216-15.36-18.432-45.056-20.48-63.488-7.168-84.992-12.288-148.48-15.36-190.464-1.024-11.264-11.264-19.456-21.504-18.432-11.264 1.024-19.456 10.24-18.432 21.504 3.072 41.984 8.192 106.496 15.36 190.464 2.048 25.6 14.336 61.44 26.624 81.92l37.888 60.416c12.288 20.48 15.36 38.912 8.192 50.176-6.144 12.288-23.552 18.432-46.08 18.432h-450.56c-11.264 0-20.48 9.216-20.48 20.48s9.216 20.48 20.48 20.48h450.56c38.912 0 67.584-14.336 81.92-39.936s11.264-58.368-9.216-92.16l-38.912-59.392z" p-id="1294" fill="#f29386"></path></svg>