<?xml version="1.0" standalone="no"?><!DOCTYPE svg PUBLIC "-//W3C//DTD SVG 1.1//EN" "http://www.w3.org/Graphics/SVG/1.1/DTD/svg11.dtd"><svg t="1616491800780" class="icon" viewBox="0 0 1024 1024" version="1.1" xmlns="http://www.w3.org/2000/svg" p-id="4010" xmlns:xlink="http://www.w3.org/1999/xlink" width="200" height="200"><defs><style type="text/css"></style></defs><path d="M914.1248 289.0752l-230.4-230.4A25.6 25.6 0 0 0 665.6 51.2H179.2C136.8576 51.2 102.4 85.6576 102.4 128v819.2c0 42.3424 34.4576 76.8 76.8 76.8h665.6c42.3424 0 76.8-34.4576 76.8-76.8V307.2a25.8048 25.8048 0 0 0-7.4752-18.1248zM859.8016 307.2H691.2a25.6 25.6 0 0 1-25.6-25.6V112.9984L859.8016 307.2zM844.8 972.8h-665.6a25.6 25.6 0 0 1-25.6-25.6v-819.2a25.6 25.6 0 0 1 25.6-25.6H614.4v179.2c0 42.3424 34.4576 76.8 76.8 76.8H870.4v588.8a25.6 25.6 0 0 1-25.6 25.6z" fill="#e6e6e6" p-id="4011"></path><path d="M588.8 665.6H460.8v-128a25.6 25.6 0 0 0-51.2 0V665.6H281.6a25.6 25.6 0 0 0 0 51.2H409.6v128a25.6 25.6 0 0 0 51.2 0V716.8h128a25.6 25.6 0 0 0 0-51.2z" fill="#e6e6e6" p-id="4012"></path></svg>