<?xml version="1.0" standalone="no"?><!DOCTYPE svg PUBLIC "-//W3C//DTD SVG 1.1//EN" "http://www.w3.org/Graphics/SVG/1.1/DTD/svg11.dtd"><svg t="1563674430036" class="icon" viewBox="0 0 1024 1024" version="1.1" xmlns="http://www.w3.org/2000/svg" p-id="1129" xmlns:xlink="http://www.w3.org/1999/xlink" width="200" height="200"><defs><style type="text/css"></style></defs><path d="M860.048 375.018 522.717 712.35l-63.366 63.365c-8.387 8.387-20.035 13.045-31.684 13.045-11.647 0-23.296-4.658-31.683-13.045l-63.366-63.365L163.953 543.684c-8.387-8.387-13.047-20.035-13.047-31.683s4.66-23.296 13.047-31.683l63.365-63.366c8.387-8.387 20.035-13.046 31.684-13.046s23.296 4.659 31.683 13.046l136.982 137.447 305.648-306.113c8.387-8.387 20.035-13.046 31.683-13.046 11.648 0 23.297 4.659 31.684 13.046l63.366 63.366c8.387 8.387 13.046 20.035 13.046 31.683C873.094 354.983 868.435 366.631 860.048 375.018z" p-id="1130" fill="#ffffff"></path></svg>